<svg width="18" height="18" viewBox="0 0 18 18" fill="none" xmlns="http://www.w3.org/2000/svg">
<path d="M16.2 9C16.2 9.44183 16.5582 9.8 17 9.8C17.4418 9.8 17.8 9.44183 17.8 9H16.2ZM9 17.8C9.44183 17.8 9.8 17.4418 9.8 17C9.8 16.5582 9.44183 16.2 9 16.2V17.8ZM9 16.2C5.02355 16.2 1.8 12.9764 1.8 9H0.2C0.2 13.8601 4.13989 17.8 9 17.8V16.2ZM1.8 9C1.8 5.02355 5.02355 1.8 9 1.8V0.2C4.13989 0.2 0.2 4.13989 0.2 9H1.8ZM9 1.8C12.9764 1.8 16.2 5.02355 16.2 9H17.8C17.8 4.13989 13.8601 0.2 9 0.2V1.8Z" fill="white"/>
</svg>
